HIERARCHY
ROOT Hips
{
	OFFSET 0.00000 0.00000 0.00000
	CHANNELS 6 Xposition Yposition Zposition Zrotation Yrotation Xrotation 
	JOINT LHipJoint
	{
		OFFSET 0 0 0
		CHANNELS 3 Zrotation Yrotation Xrotation
		JOINT LeftHip
		{
			OFFSET 1.61024 -1.73873 0.75100
			CHANNELS 3 Zrotation Yrotation Xrotation
			JOINT LeftKnee
			{
				OFFSET 2.29819 -6.31424 0.00000
				CHANNELS 3 Zrotation Yrotation Xrotation
				JOINT LeftAnkle
				{
					OFFSET 2.76618 -7.60002 0.00000
					CHANNELS 3 Zrotation Yrotation Xrotation
					JOINT LeftToe
					{
						OFFSET 0.16838 -0.46263 2.02361
						CHANNELS 3 Zrotation Yrotation Xrotation
						End Site
						{
							OFFSET 0.00000 -0.00000 1.04662
						}
					}
				}
			}
		}
	}
	JOINT RHipJoint
	{
		OFFSET 0 0 0
		CHANNELS 3 Zrotation Yrotation Xrotation
		JOINT RightHip
		{
			OFFSET -1.46153 -1.73873 0.75100
			CHANNELS 3 Zrotation Yrotation Xrotation
			JOINT RightKnee
			{
				OFFSET -2.38373 -6.54924 0.00000
				CHANNELS 3 Zrotation Yrotation Xrotation
				JOINT RightAnkle
				{
					OFFSET -2.80314 -7.70157 0.00000
					CHANNELS 3 Zrotation Yrotation Xrotation
					JOINT RightToe
					{
						OFFSET -0.16142 -0.44349 2.02101
						CHANNELS 3 Zrotation Yrotation Xrotation
						End Site
						{
							OFFSET -0.00000 -0.00000 1.04381
						}
					}
				}
			}
		}
	}
	JOINT lowerback
	{
		OFFSET 0 0 0
		CHANNELS 3 Zrotation Yrotation Xrotation
		JOINT Chest
		{
			OFFSET -0.01629 1.66985 0.14750
			CHANNELS 3 Zrotation Yrotation Xrotation
			JOINT Chest2
			{
				OFFSET 0.02086 1.62378 0.20980
				CHANNELS 3 Zrotation Yrotation Xrotation
				JOINT lowerneck
				{
					OFFSET 0 0 0
					CHANNELS 3 Zrotation Yrotation Xrotation
					JOINT Neck
					{
						OFFSET -0.05690 1.78719 0.08702
						CHANNELS 3 Zrotation Yrotation Xrotation
						JOINT Head
						{
							OFFSET 0.16035 1.73871 -0.38470
							CHANNELS 3 Zrotation Yrotation Xrotation
							End Site
							{
								OFFSET 0.05645 1.80914 -0.14081
							}
						}
					}
				}
				JOINT LeftCollar
				{
					OFFSET 0 0 0
					CHANNELS 3 Zrotation Yrotation Xrotation
					JOINT LeftShoulder
					{
						OFFSET 2.83089 1.66494 -0.46008
CHANNELS 3 Zrotation Xrotation Yrotation
						JOINT LeftElbow
						{
OFFSET 0 -5.548930 -0.000000
CHANNELS 3 Zrotation Xrotation Yrotation
							JOINT LeftWrist
							{
OFFSET 0 -3.028980 -0.000000
CHANNELS 3 Zrotation Xrotation Yrotation
								JOINT lhand
								{
									OFFSET 0 0 0
CHANNELS 3 Zrotation Xrotation Yrotation
									JOINT LFingers
									{
OFFSET 0 -0.640950 -0.000000
CHANNELS 3 Zrotation Xrotation Yrotation
										End Site
										{
OFFSET 0 -0.516750 -0.000000
										}
									}
								}
								JOINT LThumb
								{
OFFSET 0 0.000000 0.000000
CHANNELS 3 Zrotation Xrotation Yrotation
									End Site
									{
OFFSET 0 -0.524640 0.524640
									}
								}
							}
						}
					}
				}
				JOINT RightCollar
				{
					OFFSET 0 0 0
					CHANNELS 3 Zrotation Yrotation Xrotation
					JOINT RightShoulder
					{
						OFFSET -2.84442 1.45761 -0.18088
CHANNELS 3 Zrotation Xrotation Yrotation
						JOINT RightElbow
						{
OFFSET 0 -5.351900 -0.000000
CHANNELS 3 Zrotation Xrotation Yrotation
							JOINT RightWrist
							{
OFFSET 0 -3.025310 -0.000000
CHANNELS 3 Zrotation Xrotation Yrotation
								JOINT rhand
								{
									OFFSET 0 0 0
CHANNELS 3 Zrotation Xrotation Yrotation
									JOINT RFingers
									{
OFFSET 0 -0.783890 -0.000000
CHANNELS 3 Zrotation Xrotation Yrotation
										End Site
										{
OFFSET 0 -0.631990 -0.000000
										}
									}
								}
								JOINT RThumb
								{
OFFSET 0 0.000000 0.000000
CHANNELS 3 Zrotation Xrotation Yrotation
									End Site
									{
OFFSET 0 -0.641640 0.641640
									}
								}
							}
						}
					}
				}
			}
		}
	}
}
MOTION
Frames: 4
Frame Time: 0.008333333333333333
0.866300 17.783500 0.546300 176.067000 87.317200 -168.619000 0.000000 0.000000 0.000000 -16.324800 -22.603300 3.340400 0.000000 -0.000000 -0.000000 -0.896500 19.750400 -19.074200 0.401600 -4.068800 -11.270200 0.000000 0.000000 0.000000 18.236700 14.870800 -7.147600 -0.564100 -4.810400 13.368700 0.010200 -17.108700 -24.155400 -0.422800 4.173500 -11.565400 -0.814900 -1.779600 -14.018900 1.324400 -1.741000 -8.925500 1.617400 -0.581700 -1.480900 -5.952200 -2.782100 -7.279800 8.939200 -4.206800 15.070800 3.521600 -1.646700 6.059500 -0.000000 -0.000000 0.000000 7.621600 29.497700 -23.563700 77.263700 -59.378100 48.993100 -22.947900 -12.305800 -28.211700 0.000000 0.000000 0.000000 -7.125000 0.000000 0.000000 -51.988600 50.918500 9.892800 -0.000000 -0.000000 0.000000 -24.594600 35.020700 48.365600 -82.907100 -59.809000 -53.861300 26.270200 -10.135900 -13.107900 0.000000 0.000000 0.000000 7.125000 0.000000 -0.000000 34.071500 15.856500 29.304200
0.868941 17.784223 0.546308 179.444631 87.003107 -165.175619 0.000000 0.000000 0.000000 -16.038292 -22.893940 3.290854 0.000000 0.000000 0.000000 -0.886006 19.700340 -19.103682 0.392267 -4.011798 -11.111109 0.000000 0.000000 0.000000 18.472145 14.891828 -6.988563 -0.541068 -4.712787 13.091238 0.025322 -17.298212 -24.285116 -0.390107 4.010372 -11.105859 -0.569339 -1.770815 -14.147369 1.318341 -1.753186 -8.909130 1.468724 -0.596955 -1.402697 -5.953093 -2.772920 -7.459261 9.004981 -4.206743 15.274717 3.543951 -1.632765 6.156241 0.000000 0.000000 0.000000 7.104927 29.079556 -22.701538 77.417982 -59.393308 49.125863 -22.210960 -12.084684 -28.773250 0.000000 0.000000 0.000000 -7.125000 0.000000 0.000000 -51.917105 51.446264 10.680312 0.000000 0.000000 0.000000 -24.294613 34.994350 48.171346 -82.491041 -59.785889 -53.501727 26.209739 -9.988478 -13.162766 0.000000 0.000000 0.000000 7.125000 0.000000 0.000000 34.029822 15.817147 29.285853
0.858894 17.784284 0.550827 178.342826 86.801702 -166.307531 0.000000 0.000000 0.000000 -16.015827 -23.117225 3.285643 0.000000 0.000000 0.000000 -0.879002 19.635017 -19.050269 0.376806 -3.938337 -10.903833 0.000000 0.000000 0.000000 18.478257 15.413629 -6.733177 -0.537024 -4.695400 13.041729 0.066080 -17.839431 -24.687863 -0.334035 3.714323 -10.274255 -0.705283 -1.761891 -13.957167 1.304168 -1.726668 -8.936511 1.537857 -0.577687 -1.529604 -6.005897 -2.793973 -7.407157 8.941370 -4.219961 15.270818 3.531632 -1.648267 6.146832 0.000000 0.000000 0.000000 6.433276 28.876517 -21.874852 77.809640 -59.430941 49.463034 -20.168772 -10.826890 -28.936602 0.000000 0.000000 0.000000 -7.125000 0.000000 0.000000 -50.454751 51.928849 10.915867 0.000000 0.000000 0.000000 -24.089899 35.130013 47.922160 -82.529854 -59.788100 -53.535229 25.747307 -9.738732 -13.352731 0.000000 0.000000 0.000000 7.125000 0.000000 0.000000 33.764138 15.722156 29.019842
0.861062 17.785369 0.550916 177.521270 86.563075 -167.085723 0.000000 0.000000 0.000000 -16.059886 -23.375953 3.300439 0.000000 0.000000 0.000000 -0.945858 19.927802 -18.795970 0.443870 -4.274510 -11.850192 0.000000 0.000000 0.000000 18.464346 15.408776 -6.741065 -0.539806 -4.707400 13.075862 0.079586 -18.027354 -24.837224 -0.340165 3.747682 -10.367829 -0.812718 -1.781476 -14.020194 1.340517 -1.735706 -8.955447 1.633980 -0.574833 -1.511837 -6.105507 -2.781208 -7.403188 8.860328 -4.180745 15.360439 3.526365 -1.639444 6.171526 0.000000 0.000000 0.000000 5.797811 28.701289 -21.224442 77.809918 -59.431016 49.463264 -18.061567 -7.915435 -29.108778 0.000000 0.000000 0.000000 -7.125000 0.000000 0.000000 -48.906506 52.434637 11.114907 0.000000 0.000000 0.000000 -23.984809 35.283943 47.672321 -82.712301 -59.798357 -53.692955 25.697258 -9.486423 -13.312102 0.000000 0.000000 0.000000 7.125000 0.000000 0.000000 33.749290 15.767068 28.957583
